<svg class="h-5 w-5 icons rating-icon" viewBox="0 0 20 20" fill="currentColor">
    <path
        d="M9.049 2.927c.3-.921 1.603-.921 1.902 0l1.07 3.292a1 1 0 00.95.69h3.462c.969 0 1.371 1.24.588 1.81l-2.8 2.034a1 1 0 00-.364 1.118l1.07 3.292c.3.921-.755 1.688-1.54 1.118l-2.8-2.034a1 1 0 00-1.175 0l-2.8 2.034c-.784.57-1.838-.197-1.539-1.118l1.07-3.292a1 1 0 00-.364-1.118L2.98 8.72c-.783-.57-.38-1.81.588-1.81h3.461a1 1 0 00.951-.69l1.07-3.292z" />
</svg>
<!-- arrow left-->
<svg class="h-5 w-5 icons arrow-icon" viewBox="0 0 20 20" fill="currentColor">
    <path fill-rule="evenodd"
        d="M7.707 14.707a1 1 0 01-1.414 0l-4-4a1 1 0 010-1.414l4-4a1 1 0 011.414 1.414L5.414 9H17a1 1 0 110 2H5.414l2.293 2.293a1 1 0 010 1.414z"
        clip-rule="evenodd" />
</svg>
<!-- right-->
<svg class="h-5 w-5 icons arrow-icon" viewBox="0 0 20 20" fill="currentColor">
    <path fill-rule="evenodd"
        d="M12.293 5.293a1 1 0 011.414 0l4 4a1 1 0 010 1.414l-4 4a1 1 0 01-1.414-1.414L14.586 11H3a1 1 0 110-2h11.586l-2.293-2.293a1 1 0 010-1.414z"
        clip-rule="evenodd" />
</svg>